<?xml version="1.0" encoding="utf-8"?>
<!-- Generator: Adobe Illustrator 25.0.0, SVG Export Plug-In . SVG Version: 6.00 Build 0)  -->
<svg version="1.1" id="Capa_1" xmlns="http://www.w3.org/2000/svg" xmlns:xlink="http://www.w3.org/1999/xlink" x="0px" y="0px"
	 viewBox="0 0 300 50" style="enable-background:new 0 0 300 50;" xml:space="preserve">
<style type="text/css">
	.st0{fill:#277431;}
	.st1{fill:#FCDF16;}
	.st2{fill:url(#SVGID_1_);}
</style>
<path class="st0" d="M27.7,0c8,0,16.1,1.7,23.8,5.4c2.7,6.5,3.9,13.1,3.9,19.6c0,6.5-1.2,13-3.9,19.6C43.8,48.3,35.7,50,27.7,50
	c-8,0-16.1-1.7-23.8-5.4C1.2,38.1,0,31.5,0,25c0-6.5,1.2-13.1,3.9-19.6C11.6,1.7,19.7,0,27.7,0"/>
<path class="st1" d="M5.6,43c-2.2-5.6-3.5-11.7-3.5-18c0-6.4,1.2-12.4,3.5-18c6.6-3.1,14.2-4.9,22.1-4.9c7.9,0,15.4,1.7,22.1,4.9
	c2.2,5.6,3.5,11.7,3.5,18c0,6.3-1.2,12.4-3.5,18c-6.6,3.1-14.2,4.9-22.1,4.9C19.8,47.9,12.2,46.1,5.6,43"/>
<radialGradient id="SVGID_1_" cx="20.4255" cy="-30.6347" r="19.1554" gradientTransform="matrix(-4.780800e-02 -1.3249 1.3581 -4.901200e-02 71.3747 46.9165)" gradientUnits="userSpaceOnUse">
	<stop  offset="0" style="stop-color:#5BAE35"/>
	<stop  offset="0.6753" style="stop-color:#448F34"/>
	<stop  offset="1" style="stop-color:#2E7130"/>
</radialGradient>
<path class="st2" d="M48.5,41.9c-1.4-2.3-3.3-4.2-3.3-4.2c0,0-0.4-0.1-0.4-0.1c-4-1.2-6.6-2.1-7.7-2.7c-1.6-0.8-3.3-2.8-3.4-3
	c-1.9-0.1-3.4-0.1-4.9,0.1L27.8,32c-1.8,0.2-3.7,0.5-5.5,0.2c-1.2-0.2-2.4-0.6-3.6-1c-1.9-0.6-3.9-1.3-6.1-1.3h-0.1l0,0.1
	c0.5,1,2.5,4,5.1,4.8c0.6,0.1,1,0.3,1.1,0.4c0,0,1,2,1.2,2.5c-1.6-0.7-6.4-3.2-10.4-8v0c0-0.1-0.1-1-0.1-1.2
	c2.3-0.9,7.6-1.4,8.2-1.4l0,0l0,0c0.3-2.8,1-5,2.2-7.4c0-0.1,0.1-0.1,0.1-0.2c0,0,0-0.1,0-0.1c-0.1-0.1-0.2-0.2-0.2-0.2
	c0,0-3.4-0.6-3.6-0.6c0-0.1-0.4-1.1-0.4-1.2c2.6-1,5.8-1.9,7.6-2.3c0.3-0.5,0.4-0.8,0.4-1.1c0-0.3-0.1-0.5-0.4-0.7
	C22,12.5,18,13,13.9,14.6c0,0,0,0,0,0c0.9-0.6,2.4-1.6,3.5-2.1l0,0l0,0c-0.3-1-2.3-1.8-2.5-1.9c0,0,0-0.1,0-0.1
	c2-0.1,3.4,0.8,3.8,1.5l0,0l0,0c0.3-0.1,1.2-0.4,2.2-0.5l0.1,0l0-0.1c-0.3-1.7-2-2.9-2.6-3.3c0,0,0,0,0-0.1c2,0.2,3.8,1.9,4.2,3.3
	l0,0l0,0c0.5,0,1.2,0.1,1.6,0.1l0,0l0,0c0.2-0.4,0.2-0.8,0.2-1.2c0-1.3-0.7-2.7-1.6-3.6c0,0,0,0,0-0.1c2.6,1,3.2,2.8,3.2,4.6
	c0,1.2-0.3,2.4-0.5,3.1l-0.1,0.3c0,0,3.8-0.5,4.1-0.5c-0.4,0.5-1.2,1.4-2.9,2.3c0,0-1.7-0.2-1.7-0.2l0,0l0,0
	c-0.1,0.4-1.1,3.5-1.1,5.9c0,0.9,0.2,1.5,0.7,2c0.9,0.8,2.3,0.9,3.3,0.8c4.2-0.2,7.6,0.1,9.9,0.8l0.1,0l0,0c0.1-0.2,0.3-0.6,0.3-1.2
	c0-1-0.4-2.6-1.8-4.3c0,0,0,0,0,0c0.2,0.1,4,2.2,4.4,5.4c-0.1,0-1.8,0.7-1.8,0.7l0.1,0.1c1.6,1.6,2.1,3.6,2.6,5.2
	c0.3,1.3,0.8,2.1,1.3,2.5c0.6,0.5,3,1.7,3.8,2c0.6,0.9,1.6,2.5,2.4,3.7v0c1.6-4.8,2.5-9.9,2.5-15c0-5.8-1.1-11.5-3.1-16.9
	c-6.4-2.9-13.6-4.4-20.8-4.4c-7.2,0-14.4,1.5-20.8,4.4C4.8,13.5,3.7,19.2,3.7,25c0,5.8,1.1,11.5,3.1,16.9c6.4,2.9,13.6,4.4,20.8,4.4
	C34.9,46.3,42.1,44.8,48.5,41.9L48.5,41.9L48.5,41.9z"/>
<path class="st0" d="M59.3,33.4c0,0,2.9,1.1,6.2,1.1c3.5,0,5.7-0.5,6.9-1.7c1-1,1.4-2.7,1.4-5.2V10.8H79v17.4
	c-0.1,7.7-3.8,11-12.5,11c-4.2,0-7.2-0.7-7.2-0.7L59.3,33.4L59.3,33.4z"/>
<path class="st0" d="M95.4,34.6c-3,0-8.1-0.9-8.1-7.2c0-4.5,3-7.1,8.1-7.1c5.2,0,8.1,2.6,8.1,7.1C103.5,33.7,98.4,34.6,95.4,34.6
	 M82.1,27.7c0,5.3,3.5,11.5,13.3,11.5c9.8,0,13.3-6.2,13.3-11.5c0-7.4-5-11.9-13.3-11.9C87,15.8,82.1,20.3,82.1,27.7"/>
<path class="st0" d="M130.4,16.4v8.9h-13.5v-8.9h-5.2v22.3h5.2v-8.9h13.5v8.9h5.2V16.4H130.4z"/>
<path id="a" class="st0" d="M209.6,34.1v-4.3h11.9v-4.6h-11.9v-4.3H225v-4.6h-20.6v22.3H225v-4.6L209.6,34.1L209.6,34.1z"/>
<path class="st0" d="M185.9,10.8c9.9,0,15.8,5.3,15.8,14.1c0,6.3-4.2,13.7-15.8,13.7h-6.5h-6V10.8h6L185.9,10.8 M178.6,15.4v18.7
	h7.3c4,0,10.6-1.2,10.6-9.4c0-5.9-3.9-9.2-10.6-9.2L178.6,15.4L178.6,15.4z"/>
<path class="st0" d="M267.4,26c1.1,0,2.9-0.3,2.9-2.5c0-1.6-1-2.5-2.9-2.5H258v5L267.4,26L267.4,26z M276.3,38.7H270l-6.2-8.2h-6.1
	v8.2h-5.2V16.4h14.6c5,0,8,2.7,8,7.2c0,2.7-1.5,5.7-5.4,6.6L276.3,38.7L276.3,38.7z"/>
<path class="st0" d="M158.4,38.7l-13.5-15.2v15.2h-5.2V16.4h5.1l13.5,15.1V16.4h5.2v22.3L158.4,38.7L158.4,38.7z"/>
<g transform="translate(14.589,2.3717e-7)">
	<path id="a_1_" class="st0" d="M233.6,34.1v-4.3h11.9v-4.6h-11.9v-4.3h15.4v-4.6h-20.6v22.3h20.6v-4.6L233.6,34.1L233.6,34.1z"/>
</g>
<g transform="translate(45.009,2.3717e-7)">
	<path id="a_2_" class="st0" d="M283.8,34.1v-4.3h11.9v-4.6h-11.9v-4.3h15.4v-4.6h-20.6v22.3h20.6v-4.6L283.8,34.1L283.8,34.1z"/>
</g>
</svg>
